HIERARCHY
ROOT hip
{
	OFFSET 0.000000 0.000000 0.000000 
	CHANNELS 6 Xposition Yposition Zposition Xrotation Zrotation Yrotation
	JOINT abdomen
	{
		OFFSET 0.000000 3.402643 0.000000 
		CHANNELS 3 Xrotation Zrotation Yrotation
		JOINT chest
		{
			OFFSET 0.000000 8.438565 -0.680529 
			CHANNELS 3 Xrotation Zrotation Yrotation
			JOINT neck
			{
				OFFSET 0.000000 10.207942 -0.272212 
				CHANNELS 3 Xrotation Zrotation Yrotation
				JOINT head
				{
					OFFSET 0.000000 3.130431 0.000000 
					CHANNELS 3 Xrotation Zrotation Yrotation
					End Site
					{
						OFFSET 0.000000 3.130435 0.000000 
					}
				}
			}
			JOINT lCollar
			{
				OFFSET 3.470700 6.669187 -0.816635 
				CHANNELS 3 Yrotation Zrotation Xrotation
				JOINT lShldr
				{
					OFFSET 3.198488 0.000000 0.000000 
					CHANNELS 3 Zrotation Yrotation Xrotation
					JOINT lForeArm
					{
						OFFSET 10.139888 0.000000 0.000000 
						CHANNELS 3 Yrotation Zrotation Xrotation
						JOINT lHand
						{
							OFFSET 8.370511 0.000000 0.000000 
							CHANNELS 3 Zrotation Yrotation Xrotation
							End Site
							{
								OFFSET 4.083176 0.000000 0.000000 
							}
						}
					}
				}
			}
			JOINT rCollar
			{
				OFFSET -3.470700 6.669187 -0.816635 
				CHANNELS 3 Yrotation Zrotation Xrotation
				JOINT rShldr
				{
					OFFSET -3.198488 0.000000 0.000000 
					CHANNELS 3 Zrotation Yrotation Xrotation
					JOINT rForeArm
					{
						OFFSET -10.139888 0.000000 0.000000 
						CHANNELS 3 Yrotation Zrotation Xrotation
						JOINT rHand
						{
							OFFSET -8.370511 0.000000 0.000000 
							CHANNELS 3 Zrotation Yrotation Xrotation
							End Site
							{
								OFFSET -4.083176 0.000000 0.000000 
							}
						}
					}
				}
			}
		}
	}
	JOINT lThigh
	{
		OFFSET 5.308129 -1.633274 1.361059 
		CHANNELS 3 Xrotation Zrotation Yrotation
		JOINT lShin
		{
			OFFSET -2.041588 -20.007561 0.000000 
			CHANNELS 3 Xrotation Zrotation Yrotation
			JOINT lFoot
			{
				OFFSET 0.000000 -19.190928 -1.224953 
				CHANNELS 3 Xrotation Yrotation Zrotation
				End Site
				{
					OFFSET 0.000000 -2.449906 4.627600 
				}
			}
		}
	}
	JOINT rThigh
	{
		OFFSET -5.308129 -1.633274 1.361059 
		CHANNELS 3 Xrotation Zrotation Yrotation
		JOINT rShin
		{
			OFFSET 2.041588 -20.007561 0.000000 
			CHANNELS 3 Xrotation Zrotation Yrotation
			JOINT rFoot
			{
				OFFSET 0.000000 -19.190928 -1.224953 
				CHANNELS 3 Xrotation Yrotation Zrotation
				End Site
				{
					OFFSET 0.000000 -2.449906 4.627600 
				}
			}
		}
	}
}
MOTION
Frames: 8
Frame Time: 0.016667
-26.257639 37.542919 57.389626 -12.830991 -11.300353 106.567421 43.868786 0.393020 7.870708 -20.839844 0.000000 0.000000 -34.345539 9.921233 17.307365 8.603792 -1.684224 0.126603 -4.754609 -0.109183 -0.002653 -69.604752 31.789083 10.159004 -10.702639 7.647783 33.051632 -178.284027 -187.877502 -159.208649 4.754609 0.109183 -0.002672 32.762180 44.599785 -5.635064 92.497002 22.344088 3.719925 128.169632 -141.205566 200.711929 -50.929901 13.981602 3.863160 106.765541 -1.780195 -1.666096 -6.802612 4.586487 8.888122 -15.847950 -16.560358 -6.277053 49.507233 3.134662 1.606889 -26.283060 -8.665251 22.841541 
-20.901997 38.917961 52.591709 -9.124517 -9.287381 113.701057 44.039040 -1.853359 8.708441 -20.839844 0.000000 0.000000 -32.576805 6.266432 8.322051 8.603792 -1.684224 0.126603 -4.754609 -0.109183 -0.002653 -58.384274 33.150024 11.883261 -12.943552 4.506545 34.669289 179.266190 -188.559036 -159.369278 4.754609 0.109183 -0.002672 21.793159 40.778561 -12.173009 105.386391 20.303066 4.770689 130.918259 -142.749451 192.476669 -62.142155 10.174811 0.684080 92.117569 0.145980 0.654858 -7.777343 6.823000 6.111639 9.222461 -17.258236 -9.945234 23.084831 0.319574 -4.088451 -2.692123 -10.284679 27.804457 
-15.517715 39.227501 47.983337 -4.181430 -8.912145 119.730675 43.985970 -7.164003 8.255445 -20.839844 0.000000 0.000000 -30.252844 3.769176 -0.364272 8.603792 -1.684224 0.126603 -4.754609 -0.109183 -0.002653 -50.398560 28.844511 11.558675 -17.443762 0.475525 34.319794 178.466858 -187.851700 -164.957092 4.754609 0.109183 -0.002672 23.698803 34.948376 -11.393358 105.397530 19.927248 7.984819 138.102142 -145.260651 187.271774 -64.921532 6.502236 0.883269 71.832306 -1.648876 1.715394 -11.963573 7.709144 4.031962 32.826065 -15.516643 -14.174612 -3.288604 -4.088326 -8.267431 23.474907 -6.026986 26.451773 
-9.764666 39.495155 42.662422 -1.341620 -8.132566 126.683441 43.795135 -8.132715 7.612615 -20.839844 0.000000 0.000000 -28.250113 2.706859 -7.455798 8.603792 -1.684224 0.126603 -4.754609 -0.109183 -0.002653 -50.105713 19.139761 5.139012 -21.871216 -5.641857 30.257631 178.256851 -187.149200 -179.237549 4.754609 0.109183 -0.002672 35.827011 24.996336 -5.146830 92.063980 21.737625 13.629139 145.702545 -148.528091 185.399185 -60.533501 4.570218 3.091371 50.390190 -5.361282 2.419479 -15.944928 4.256574 3.073661 43.850338 -11.982332 -13.178993 -5.430538 -4.660015 -9.443447 34.470654 -3.681929 21.241425 
-3.970741 39.636650 36.905296 -0.550601 -6.669617 134.506882 43.618217 -4.759443 6.021677 -20.839844 0.000000 0.000000 -27.280617 2.915981 -12.385865 8.603792 -1.684224 0.126603 -4.754609 -0.109183 -0.002653 -55.954590 6.978693 0.888005 -25.768713 -10.696058 24.995024 179.150192 -187.313354 -188.649368 4.754609 0.109183 -0.002672 50.538982 15.975209 -1.125874 67.322113 18.497055 23.352283 154.573685 -152.784256 182.731110 -53.817017 2.050928 4.926715 38.004345 -7.730132 2.714163 -17.536932 -0.265391 1.657872 40.941048 -10.565864 -12.453816 18.489023 2.638556 -8.243685 29.620348 -3.385341 15.127918 
1.473303 39.298508 31.466362 0.805936 -6.483739 140.094009 43.965630 -3.666078 1.954905 -20.839844 0.000000 0.000000 -27.689301 4.174690 -15.093938 8.603792 -1.684224 0.126603 -4.754609 -0.109183 -0.002653 -64.237465 -5.257967 3.384857 -31.736799 -12.734221 20.044960 -178.097488 -186.961899 -188.220337 4.754609 0.109183 -0.002672 65.637131 14.641312 -0.310673 33.174671 7.016747 28.805630 161.158066 -165.520813 178.917587 -49.670940 -0.918168 4.969984 41.803974 -8.336598 2.720940 -15.055510 -0.737386 4.298010 28.351786 -14.968652 -15.605799 54.962322 6.588249 -3.069953 18.753624 -4.432514 10.345126 
6.661942 38.893448 26.154598 1.642766 -6.901486 144.049683 44.529282 -2.630760 -3.650977 -20.839844 0.000000 0.000000 -29.266445 6.384184 -15.620317 8.603792 -1.684224 0.126603 -4.754609 -0.109183 -0.002653 -72.461899 -17.335510 8.429436 -39.819710 -13.326504 15.507429 -175.249023 -186.496582 -187.090149 4.754609 0.109183 -0.002672 75.546303 18.042532 -0.172513 -2.728431 -0.189806 26.385921 166.522903 -171.390259 174.036499 -45.328259 -1.894220 4.915328 51.213852 -9.068803 1.941674 -13.947828 -0.461184 6.973954 12.909113 -20.419775 -16.009031 81.434929 3.715897 -1.397295 10.152043 -7.282358 6.753086 
11.725427 38.671257 20.951656 1.870477 -7.261796 146.501190 44.997620 -0.880481 -10.104519 -20.839844 0.000000 0.000000 -31.148176 9.453193 -13.851889 8.603792 -1.684224 0.126603 -4.754609 -0.109183 -0.002653 -78.882889 -28.997707 13.319511 -48.291351 -12.450534 11.578146 -175.117401 -187.440399 -188.251007 4.754609 0.109183 -0.002672 81.450409 2.962925 -4.264297 4.417068 0.365016 26.187426 170.115936 -166.988434 171.764816 -38.540127 -0.751819 5.354965 59.567062 -9.900738 0.395169 -22.883009 -1.918058 7.411623 -9.188598 -24.585546 -10.451545 96.534332 -1.806902 -2.020302 3.514208 -8.961493 3.446638 
